<svg width="17" height="16" viewBox="0 0 17 16" fill="none" xmlns="http://www.w3.org/2000/svg">
<path d="M14.1758 1.59305C14.2767 1.39029 14.1942 1.14404 13.9914 1.04309C13.7887 0.942107 13.5424 1.02468 13.4415 1.22744L10.2736 7.58995C10.0484 7.58995 14.2711 7.58995 7.6354 7.58995L10.6213 1.59305C10.7222 1.39029 10.6397 1.14404 10.4369 1.04309C10.2342 0.942107 9.9879 1.02468 9.88695 1.22744L8.75714 3.49657L7.62734 1.22744C7.52638 1.02468 7.28015 0.942134 7.07737 1.04309C6.8746 1.14404 6.79205 1.39027 6.89302 1.59305L8.29897 4.41679C7.85914 5.30013 7.41969 6.18272 6.97987 7.06607L4.07281 1.22744C3.97186 1.02468 3.7256 0.942162 3.52285 1.04309C3.32007 1.14404 3.23752 1.39027 3.3385 1.59305L6.57272 8.08872C6.58254 8.13313 6.59968 8.17622 6.62432 8.21601C6.63176 8.22804 6.63991 8.23944 6.64844 8.25049C5.68463 8.92016 5.05231 10.035 5.05231 11.2949C5.05231 13.3379 6.71439 15 8.75733 15C10.8003 15 12.4624 13.3379 12.4624 11.2949C12.4624 10.031 11.826 8.91299 10.857 8.24406C10.8711 8.22495 10.8839 8.20463 10.8947 8.18289L14.1758 1.59305ZM11.642 11.295C11.642 12.8856 10.3479 14.1797 8.75731 14.1797C7.16668 14.1797 5.87259 12.8856 5.87259 11.295C5.87259 9.70434 7.16668 8.41026 8.75731 8.41026C10.3479 8.41026 11.642 9.70434 11.642 11.295Z" fill="#141414"/>
<path d="M8.92468 9.36816C8.87057 9.36816 8.82133 9.37801 8.78195 9.40262L8.1323 9.79634C8.03386 9.8554 7.98956 9.95384 7.98956 10.0572C7.98956 10.2098 8.088 10.3623 8.23071 10.3623C8.26516 10.3623 8.30946 10.3525 8.35375 10.323L8.49648 10.2344V12.7395C8.49648 12.897 8.68844 12.9757 8.88039 12.9757C9.07234 12.9757 9.26429 12.897 9.26429 12.7395V9.60931C9.26429 9.46168 9.08218 9.36816 8.92468 9.36816Z" fill="#141414"/>
</svg>
