<svg width="16" height="16" viewBox="0 0 16 16" fill="none" xmlns="http://www.w3.org/2000/svg">
    <g clip-path="url(#clip0_2528_4027)">
        <path
            d="M8.00033 15.3327C12.0504 15.3327 15.3337 12.0494 15.3337 7.99935C15.3337 3.94926 12.0504 0.666016 8.00033 0.666016C3.95024 0.666016 0.666992 3.94926 0.666992 7.99935C0.666992 12.0494 3.95024 15.3327 8.00033 15.3327Z"
            fill="#26A17B" />
        <path fill-rule="evenodd" clip-rule="evenodd"
            d="M8.88095 8.6335V8.63258C8.83053 8.63625 8.57066 8.65183 7.99087 8.65183C7.52795 8.65183 7.20207 8.63808 7.08749 8.63258V8.63396C5.30549 8.55558 3.97541 8.24529 3.97541 7.87404C3.97541 7.50325 5.30549 7.19296 7.08749 7.11321V8.32504C7.20391 8.33329 7.53757 8.353 7.99866 8.353C8.55187 8.353 8.82916 8.33008 8.88095 8.3255V7.11413C10.6593 7.19342 11.9862 7.50371 11.9862 7.87404C11.9862 8.24529 10.6593 8.55467 8.88095 8.6335ZM8.88095 6.98808V5.90367H11.3624V4.25H4.60607V5.90367H7.08749V6.98763C5.07082 7.08021 3.5542 7.47988 3.5542 7.95838C3.5542 8.43688 5.07082 8.83608 7.08749 8.92913V12.4042H8.88095V8.92821C10.8944 8.83562 12.4074 8.43642 12.4074 7.95838C12.4074 7.48033 10.8944 7.08113 8.88095 6.98808Z"
            fill="white" />
    </g>
    <defs>
        <clipPath id="clip0_2528_4027">
            <rect width="14.6667" height="14.6667" fill="white"
                transform="translate(0.666504 0.666992)" />
        </clipPath>
    </defs>
</svg>
    