<svg width="16" height="16" viewBox="0 0 16 16" fill="none" xmlns="http://www.w3.org/2000/svg">
    <path
        d="M12.2001 14.5335H14.5335V13.1335C14.5335 11.8448 13.4888 10.8001 12.2001 10.8001M8.93346 4.26497C8.93346 5.8105 7.68 7.06315 6.13346 7.06315C4.58693 7.06315 3.33346 5.8105 3.33346 4.26497C3.33346 2.71945 4.58693 1.4668 6.13346 1.4668C7.68 1.4668 8.93346 2.71945 8.93346 4.26497ZM10.8001 14.525H1.4668C1.4668 13.8622 1.4668 13.2318 1.4668 12.6609C1.4668 11.1145 2.7204 9.86133 4.2668 9.86133H8.00013C9.54653 9.86133 10.8001 11.1145 10.8001 12.6609C10.8001 13.2318 10.8001 13.8622 10.8001 14.525ZM11.7335 8.93346C10.7025 8.93346 9.8668 8.09773 9.8668 7.0668C9.8668 6.03587 10.7025 5.20013 11.7335 5.20013C12.7644 5.20013 13.6001 6.03587 13.6001 7.0668C13.6001 8.09773 12.7644 8.93346 11.7335 8.93346Z"
        stroke="#141414" stroke-opacity="0.7" />
</svg>
    