<svg width="16" height="16" viewBox="0 0 16 16" fill="none" xmlns="http://www.w3.org/2000/svg">
<path d="M6.16666 0H1.16666C0.523346 0 3.05176e-05 0.523315 3.05176e-05 1.16663V4.16663C3.05176e-05 4.81006 0.523346 5.33337 1.16666 5.33337H6.16666C6.81009 5.33337 7.33341 4.81006 7.33341 4.16663V1.16663C7.33341 0.523315 6.81009 0 6.16666 0Z" fill="#141414"/>
<path d="M6.16669 6.66682H1.16669C0.523377 6.66682 6.10352e-05 7.19014 6.10352e-05 7.83357V14.8336C6.10352e-05 15.4769 0.523377 16.0002 1.16669 16.0002H6.16669C6.81012 16.0002 7.33344 15.4769 7.33344 14.8336V7.83357C7.33344 7.19014 6.81012 6.66682 6.16669 6.66682Z" fill="#141414"/>
<path d="M14.8336 10.6668H9.83365C9.19022 10.6668 8.6669 11.1901 8.6669 11.8336V14.8336C8.6669 15.4769 9.19022 16.0002 9.83365 16.0002H14.8336C15.477 16.0002 16.0003 15.4769 16.0003 14.8336V11.8336C16.0003 11.1901 15.477 10.6668 14.8336 10.6668Z" fill="#141414"/>
<path d="M14.8336 0H9.83365C9.19022 0 8.6669 0.523316 8.6669 1.16663V8.16663C8.6669 8.81006 9.19022 9.33338 9.83365 9.33338H14.8336C15.477 9.33338 16.0003 8.81006 16.0003 8.16663V1.16663C16.0003 0.523316 15.477 0 14.8336 0Z" fill="#141414"/>
</svg>
