<svg width="18" height="18" viewBox="0 0 18 18" fill="none" xmlns="http://www.w3.org/2000/svg">
<g clip-path="url(#clip0_708_7644)">
<path fill-rule="evenodd" clip-rule="evenodd" d="M13.5946 7.7048H9.18464V5.9248H6.81464V7.7048H2.31464C2.22593 7.70497 2.13841 7.72532 2.05872 7.7643C1.97902 7.80328 1.90924 7.85988 1.85464 7.9298L0.429643 9.7048C0.343845 9.80805 0.296875 9.93806 0.296875 10.0723C0.296875 10.2065 0.343845 10.3366 0.429643 10.4398L1.84964 12.2198C1.90424 12.2897 1.97402 12.3463 2.05372 12.3853C2.13341 12.4243 2.22093 12.4446 2.30964 12.4448H13.5946C13.7524 12.4448 13.9038 12.3821 14.0154 12.2705C14.127 12.1589 14.1896 12.0076 14.1896 11.8498V8.2948C14.1896 8.137 14.127 7.98566 14.0154 7.87408C13.9038 7.76249 13.7524 7.6998 13.5946 7.6998V7.7048Z" fill="#141414"/>
<path d="M6.81543 13.6299H9.18543V15.9999H6.81543V13.6299Z" fill="#141414"/>
<path fill-rule="evenodd" clip-rule="evenodd" d="M15.575 2L14.155 0.225C14.0994 0.15496 14.0287 0.0983588 13.9482 0.0594045C13.8677 0.0204502 13.7794 0.000145405 13.69 0H2.41C2.25683 0.00317163 2.11047 0.0638592 2 0.17C1.89016 0.2821 1.82905 0.433059 1.83 0.59V4.15C1.82905 4.30694 1.89016 4.4579 2 4.57C2.11298 4.67849 2.26336 4.73936 2.42 4.74H13.69C13.7786 4.73911 13.8659 4.71844 13.9454 4.67952C14.025 4.64059 14.0949 4.58438 14.15 4.515L15.57 2.735C15.6539 2.63113 15.7 2.50188 15.7009 2.36837C15.7018 2.23487 15.6574 2.10501 15.575 2Z" fill="#141414"/>
</g>
<defs>
<clipPath id="clip0_708_7644">
<rect width="18" height="18" fill="white"/>
</clipPath>
</defs>
</svg>
