<svg width="18" height="18" viewBox="0 0 18 18" fill="none" xmlns="http://www.w3.org/2000/svg">
<g clip-path="url(#clip0_1399_8365)">
<path d="M17.46 14.94L14.94 12.42C15.75 11.16 16.2 9.72 16.2 8.1C16.2 3.6 12.6 0 8.1 0C3.6 0 0 3.6 0 8.1C0 12.6 3.6 16.2 8.1 16.2C9.72 16.2 11.16 15.75 12.42 14.94L14.94 17.46C15.66 18.18 16.74 18.18 17.46 17.46C18.18 16.74 18.18 15.66 17.46 14.94ZM8.1 14.4C4.59 14.4 1.8 11.61 1.8 8.1C1.8 4.59 4.59 1.8 8.1 1.8C11.61 1.8 14.4 4.59 14.4 8.1C14.4 11.61 11.61 14.4 8.1 14.4Z" fill="white"/>
<path d="M10.8 5.40039H5.4C4.86 5.40039 4.5 5.85039 4.5 6.30039C4.5 6.84039 4.86 7.20039 5.4 7.20039H10.8C11.34 7.20039 11.7 6.84039 11.7 6.30039C11.7 5.85039 11.34 5.40039 10.8 5.40039Z" fill="white"/>
<path d="M8.1 9H5.4C4.86 9 4.5 9.36 4.5 9.9C4.5 10.44 4.86 10.8 5.4 10.8H8.1C8.64 10.8 9 10.44 9 9.9C9 9.45 8.64 9 8.1 9Z" fill="white"/>
</g>
<defs>
<clipPath id="clip0_1399_8365">
<rect width="18" height="18" fill="white"/>
</clipPath>
</defs>
</svg>
