<svg width="18" height="18" viewBox="0 0 18 18" fill="none" xmlns="http://www.w3.org/2000/svg">
<path d="M13.9 9.1C13.5 8.85 13.25 8.45 13.25 8C13.25 7.55 13.5 7.15 13.9 6.9C14.2 6.7 14.45 6.45 14.5 6.1C14.55 5.75 14.55 5.4 14.35 5.1L13.7 3.95C13.35 3.3 12.5 3.1 11.85 3.45C11.45 3.7 11 3.7 10.6 3.45C10.25 3.2 9.99999 2.8 9.99999 2.35C9.99999 1.6 9.39999 1 8.64999 1H7.34999C6.59999 1 5.99999 1.6 5.99999 2.35C5.99999 2.8 5.74999 3.2 5.34999 3.45C4.94999 3.65 4.49999 3.65 4.09999 3.45C3.44999 3.1 2.64999 3.3 2.24999 3.95L1.59999 5.1C1.39999 5.4 1.34999 5.75 1.44999 6.1C1.54999 6.45 1.74999 6.75 2.04999 6.9C2.49999 7.15 2.74999 7.55 2.74999 8C2.74999 8.45 2.49999 8.85 2.09999 9.1C1.79999 9.3 1.54999 9.55 1.49999 9.9C1.44999 10.25 1.44999 10.6 1.64999 10.9L2.29999 12.05C2.64999 12.7 3.49999 12.9 4.14999 12.55C4.54999 12.3 4.99999 12.3 5.39999 12.55C5.79999 12.8 6.04999 13.2 6.04999 13.65C6.04999 14.4 6.64999 15 7.39999 15H8.69999C9.44999 15 10.05 14.4 10.05 13.65C10.05 13.2 10.3 12.8 10.7 12.55C11.1 12.3 11.55 12.3 11.95 12.55C12.6 12.9 13.4 12.7 13.8 12.05L14.45 10.9C14.65 10.6 14.7 10.25 14.6 9.9C14.5 9.55 14.2 9.3 13.9 9.1ZM7.99999 10.5C6.59999 10.5 5.49999 9.4 5.49999 8C5.49999 6.6 6.59999 5.5 7.99999 5.5C9.39999 5.5 10.5 6.6 10.5 8C10.5 9.4 9.39999 10.5 7.99999 10.5Z" fill="#141414"/>
</svg>
