<svg width="25" height="25" viewBox="0 0 25 25" fill="none" xmlns="http://www.w3.org/2000/svg">
<path d="M2.66956 7.79607V17.2041C2.66956 17.8089 2.98636 18.3561 3.51436 18.6633L11.6648 23.3673C12.1832 23.6649 12.8264 23.6649 13.3448 23.3673L21.4952 18.6633C22.0136 18.3657 22.34 17.8089 22.34 17.2041V7.79607C22.34 7.19127 22.0232 6.64407 21.4952 6.33687L13.3448 1.63287C12.8264 1.33527 12.1832 1.33527 11.6648 1.63287L3.51436 6.33687C2.99596 6.63447 2.67916 7.19127 2.67916 7.79607H2.66956Z" fill="#213147"/>
<path d="M14.276 14.3239L13.1144 17.5111C13.0856 17.5975 13.0856 17.6935 13.1144 17.7895L15.1112 23.2711L17.4248 21.9367L14.6504 14.3239C14.5832 14.1511 14.3432 14.1511 14.276 14.3239Z" fill="#12AAFF"/>
<path d="M16.6087 8.96725C16.5415 8.79445 16.3015 8.79445 16.2343 8.96725L15.0727 12.1544C15.0439 12.2408 15.0439 12.3368 15.0727 12.4328L18.3463 21.4088L20.6599 20.0744L16.6087 8.97685V8.96725Z" fill="#12AAFF"/>
<path d="M12.5 1.988C12.5576 1.988 12.6152 2.0072 12.6632 2.036L21.476 7.124C21.5816 7.1816 21.6392 7.2968 21.6392 7.412V17.588C21.6392 17.7032 21.572 17.8184 21.476 17.876L12.6632 22.964C12.6152 22.9928 12.5576 23.012 12.5 23.012C12.4424 23.012 12.3848 22.9928 12.3368 22.964L3.52396 17.876C3.41836 17.8184 3.36076 17.7032 3.36076 17.588V7.4024C3.36076 7.2872 3.42796 7.172 3.52396 7.1144L12.3368 2.0264C12.3848 1.9976 12.4424 1.9784 12.5 1.9784V1.988ZM12.5 0.5C12.1832 0.5 11.876 0.5768 11.588 0.74L2.77516 5.828C2.20876 6.1544 1.86316 6.7496 1.86316 7.4024V17.5784C1.86316 18.2312 2.20876 18.8264 2.77516 19.1528L11.588 24.2408C11.8664 24.404 12.1832 24.4808 12.5 24.4808C12.8168 24.4808 13.124 24.404 13.412 24.2408L22.2248 19.1528C22.7912 18.8264 23.1368 18.2312 23.1368 17.5784V7.4024C23.1368 6.7496 22.7912 6.1544 22.2248 5.828L13.4024 0.74C13.124 0.5768 12.8072 0.5 12.4904 0.5H12.5Z" fill="#9DCCED"/>
<path d="M6.66321 21.4184L7.47921 19.1912L9.11121 20.5448L7.58481 21.9464L6.66321 21.4184Z" fill="#213147"/>
<path d="M11.7512 6.68245H9.51441C9.35121 6.68245 9.19761 6.78805 9.14001 6.94165L4.34961 20.0745L6.66321 21.4089L11.9432 6.94165C11.9912 6.80725 11.8952 6.67285 11.7608 6.67285L11.7512 6.68245Z" fill="white"/>
<path d="M15.668 6.68245H13.4312C13.268 6.68245 13.1144 6.78805 13.0568 6.94165L7.58484 21.9369L9.89844 23.2713L15.8504 6.94165C15.8984 6.80725 15.8024 6.67285 15.668 6.67285V6.68245Z" fill="white"/>
</svg>
