<svg width="15" height="16" viewBox="0 0 15 16" fill="none" xmlns="http://www.w3.org/2000/svg">
    <path d="M7 5V5.5H8V5H7ZM8 4.99V4.49H7V4.99H8ZM8 11.5V7.5H7V11.5H8ZM8 5V4.99H7V5H8ZM6 8.5H7.5V7.5H6V8.5ZM6 11.5H9V10.5H6V11.5ZM7.5 1.5C11.0899 1.5 14 4.41015 14 8H15C15 3.85787 11.6421 0.5 7.5 0.5V1.5ZM1 8C1 4.41015 3.91015 1.5 7.5 1.5V0.5C3.35787 0.5 3.57628e-07 3.85786 0 8H1ZM7.5 14.5C3.91015 14.5 1 11.5899 1 8H0C-3.57628e-07 12.1421 3.35786 15.5 7.5 15.5V14.5ZM7.5 15.5C11.6421 15.5 15 12.1421 15 8H14C14 11.5899 11.0899 14.5 7.5 14.5V15.5Z"
          fill="#141414" fill-opacity="0.5"/>
</svg>
