<svg width="48" height="48" viewBox="0 0 48 48" fill="none" xmlns="http://www.w3.org/2000/svg">
    <g clip-path="url(#clip0_2610_10162)">
        <path
            d="M24 48C37.2548 48 48 37.2548 48 24C48 10.7452 37.2548 0 24 0C10.7452 0 0 10.7452 0 24C0 37.2548 10.7452 48 24 48Z"
            fill="black" />
        <path
            d="M24 48C37.2548 48 48 37.2548 48 24C48 10.7452 37.2548 0 24 0C10.7452 0 0 10.7452 0 24C0 37.2548 10.7452 48 24 48Z"
            stroke="#141414" />
        <path
            d="M15.375 34.374L18.8295 28.395L22.281 22.437L25.713 16.458L26.283 15.51L26.5335 16.458L27.5865 20.394L26.4075 22.437L22.956 28.395L19.524 34.374H23.649L27.102 28.395L28.8915 25.3005L29.7345 28.395L31.3335 34.374H35.0385L33.4395 28.395L31.839 22.437L31.419 20.8995L33.987 16.458H30.24L30.1125 16.0155L28.8075 11.1315L28.6395 10.5H25.0395L24.9555 10.626L21.5865 16.458L18.1335 22.437L14.703 28.395L11.25 34.374H15.375Z"
            fill="white" />
    </g>
    <defs>
        <clipPath id="clip0_2610_10162">
            <rect width="48" height="48" fill="white" />
        </clipPath>
    </defs>
</svg>
    