<svg width="20" height="17" viewBox="0 0 20 17" fill="none" xmlns="http://www.w3.org/2000/svg">
    <path
        d="M9.97107 0C9.87355 0.0015874 9.78052 0.0411112 9.71163 0.109993C8.5335 1.28549 7.72433 2.74011 7.30199 4.29358C7.15261 4.78655 7.90569 4.9907 8.02562 4.48973C8.37763 3.19498 9.05968 1.93769 9.97678 0.91991C10.9125 1.95784 11.5888 3.21331 11.9323 4.4883C12.0539 4.98695 12.8033 4.78349 12.656 4.29185C12.2436 2.76145 11.4438 1.31154 10.2419 0.109734C10.1424 0.021576 10.0425 0.00255118 9.97107 0Z"
        fill="#3A3640" />
    <path
        d="M4.41211 1.71819C4.26187 1.71969 4.1268 1.81091 4.06929 1.94981C3.5201 3.27152 3.30195 4.67977 3.3794 6.06311C3.40774 6.56311 4.15673 6.52198 4.12932 6.02197C4.06611 4.89478 4.23935 3.67278 4.62154 2.58689C8.32248 4.34644 10.2816 8.48181 9.35596 12.3867C9.22131 12.8848 9.98217 13.0652 10.0854 12.5597C11.1279 8.16168 8.86541 3.53009 4.55857 1.74613C4.51208 1.72629 4.46228 1.71762 4.41211 1.71819Z"
        fill="#3A3640" />
    <path
        d="M18.9618 5.22705C13.7885 5.22705 9.58862 9.43252 9.58862 14.6057C9.59089 14.8118 9.75896 14.9775 9.9651 14.9767C15.3758 14.9824 19.3438 10.5439 19.3383 5.60357C19.339 5.39523 19.1702 5.22626 18.9618 5.22705ZM18.5792 5.98749C18.3346 10.4081 14.8881 13.9964 10.3505 14.2243C10.6789 9.32046 14.472 6.20176 18.5792 5.98749Z"
        fill="#3A3640" />
    <path
        d="M0.985857 5.22705C6.15909 5.22705 10.359 9.43252 10.359 14.6057C10.3568 14.8118 10.1886 14.9775 9.98254 14.9767C4.57185 14.9824 0.603853 10.5439 0.609381 5.60357C0.608587 5.39523 0.777454 5.22626 0.985857 5.22705ZM1.36839 5.98749C1.61302 10.4081 5.0595 13.9964 9.59715 14.2243C9.26878 9.32046 5.47556 6.20176 1.36839 5.98749Z"
        fill="#3A3640" />
    <path
        d="M15.5218 1.71819C15.6721 1.71969 15.8071 1.81091 15.8646 1.94981C16.4138 3.27152 16.632 4.67977 16.5546 6.06311C16.5262 6.56311 15.7771 6.52198 15.8045 6.02197C15.8677 4.89478 15.6945 3.67278 15.3123 2.58689C11.6114 4.34644 9.65229 8.48181 10.5779 12.3867C10.7126 12.8848 9.9517 13.0652 9.84849 12.5597C8.80599 8.16168 11.0685 3.53009 15.3753 1.74613C15.4218 1.72629 15.4717 1.71762 15.5218 1.71819Z"
        fill="#3A3640" />
    <path
        d="M5.03905 12.8101C4.17972 12.9926 3.49252 13.2153 2.98971 13.4868C2.73827 13.6226 2.53064 13.7706 2.37153 13.9497C2.21251 14.1288 2.09997 14.3546 2.09912 14.6016C2.09912 14.6011 2.09912 14.602 2.09912 14.6016C2.09909 15.0631 2.44154 15.4015 2.87258 15.6563C3.30358 15.9111 3.88018 16.1169 4.58056 16.292C5.98136 16.6422 7.87774 16.8531 9.97416 16.853C12.0706 16.8531 13.967 16.6421 15.3678 16.292C16.0681 16.1168 16.6447 15.911 17.0757 15.6563C17.5068 15.4014 17.8491 15.0646 17.8491 14.603C17.8491 14.6026 17.8491 14.6035 17.8491 14.603C17.8481 14.3561 17.7357 14.1287 17.5767 13.9497C17.4177 13.7705 17.21 13.6225 16.9586 13.4868C16.4558 13.2152 15.7686 12.9927 14.9093 12.8101L14.7539 13.5425C15.569 13.7157 16.2018 13.9318 16.6011 14.1474C16.8006 14.2552 16.9406 14.3635 17.0156 14.4478C17.0902 14.5314 17.099 14.5753 17.0993 14.6031C17.0993 14.6592 17.0216 14.8165 16.6935 15.0103C16.3655 15.2042 15.843 15.4013 15.1862 15.5655C13.8725 15.8939 12.02 16.1031 9.97424 16.1031C7.92848 16.1031 6.076 15.8939 4.76231 15.5655C4.10547 15.4014 3.58302 15.2042 3.25502 15.0103C2.92762 14.8167 2.84956 14.6611 2.84931 14.6046C2.84953 14.5762 2.85775 14.5317 2.93287 14.4478C3.00799 14.3633 3.14774 14.2553 3.34741 14.1474C3.74673 13.9317 4.37945 13.7157 5.19458 13.5425L5.03905 12.8101Z"
        fill="#3A3640" />
</svg>
    