<svg width="28" height="28" viewBox="0 0 28 28" fill="none" xmlns="http://www.w3.org/2000/svg">
    <path fill-rule="evenodd" clip-rule="evenodd"
        d="M13.9453 3.00684L17.6286 8.51011L21.3118 14.0147L13.9453 17.7259L6.57874 14.0007L10.262 8.49611L13.9453 3.00684ZM13.9453 19.2087L6.98728 15.4961L13.9453 24.9945L20.9033 15.4961L13.9453 19.2087Z"
        fill="#343434" />
    <path fill-rule="evenodd" clip-rule="evenodd"
        d="M13.9453 3.00684L17.6286 8.49611L21.3119 14.0007L13.9453 11.2197V3.00684Z" fill="#343434" />
    <path fill-rule="evenodd" clip-rule="evenodd"
        d="M13.9453 19.2086L20.9173 15.4961L13.9453 25.0085V19.2086Z" fill="#313131" />
    <path fill-rule="evenodd" clip-rule="evenodd"
        d="M13.9453 11.2188L21.3119 13.9997L13.9453 17.7109V11.2188Z" fill="#151515" />
    <path fill-rule="evenodd" clip-rule="evenodd"
        d="M13.9453 3.00684L10.262 8.49611L6.57874 14.0007L13.9453 11.2197V3.00684Z" fill="#8C8C8C" />
    <path fill-rule="evenodd" clip-rule="evenodd"
        d="M13.9452 19.2086L6.98718 15.4961L13.9452 25.0085V19.2086Z" fill="#8A8A8A" />
    <path fill-rule="evenodd" clip-rule="evenodd"
        d="M13.9453 11.2188L6.57874 13.9997L13.9453 17.7109V11.2188Z" fill="#353535" />
</svg>
    