<svg width="48" height="48" viewBox="0 0 48 48" fill="none" xmlns="http://www.w3.org/2000/svg">
    <g clip-path="url(#clip0_2610_11753)">
        <path
            d="M24 48C37.2548 48 48 37.2548 48 24C48 10.7452 37.2548 0 24 0C10.7452 0 0 10.7452 0 24C0 37.2548 10.7452 48 24 48Z"
            fill="#0072FF" />
        <path
            d="M24 48C37.2548 48 48 37.2548 48 24C48 10.7452 37.2548 0 24 0C10.7452 0 0 10.7452 0 24C0 37.2548 10.7452 48 24 48Z"
            stroke="#141414" />
        <path
            d="M36.0405 19.2045L28.8225 35.25H25.938L33.5355 18.36C34.4112 18.502 35.2576 18.7873 36.0405 19.2045ZM23.4105 9.7785L12.306 34.467C9.474 33.123 7.5 30.1785 7.5 26.7495C7.5 22.0545 11.193 18.2505 15.75 18.2505C15.75 13.758 19.131 10.0905 23.4105 9.7785ZM32.2515 18.2505L24.603 35.25H21.4785L31.0815 13.905C31.821 15.177 32.2515 16.659 32.2515 18.2505ZM35.0925 34.7235L39.9915 23.8395C40.3155 24.7515 40.5 25.7295 40.5 26.754C40.5 30.411 38.25 33.5265 35.0925 34.7235ZM37.2555 20.0025C37.9395 20.5425 38.5455 21.1845 39.0345 21.921L33.0555 35.208C32.7884 35.2363 32.5201 35.2503 32.2515 35.25H30.3975L37.2555 20.0025ZM24.03 9.75C25.2 9.7545 26.3085 10.011 27.315 10.4715L16.17 35.25H15.75C14.715 35.25 13.725 35.046 12.8145 34.6845L24.03 9.75ZM30.4305 12.927L20.388 35.25H17.019L28.0095 10.8225C28.9425 11.3595 29.7645 12.0765 30.4305 12.927Z"
            fill="white" />
    </g>
    <defs>
        <clipPath id="clip0_2610_11753">
            <rect width="48" height="48" fill="white" />
        </clipPath>
    </defs>
</svg>
    