<svg width="48" height="48" viewBox="0 0 48 48" fill="none" xmlns="http://www.w3.org/2000/svg">
<g clip-path="url(#clip0_1993_50889)">
<path d="M24 47.2802C36.8572 47.2802 47.28 36.8574 47.28 24.0002C47.28 11.143 36.8572 0.720215 24 0.720215C11.1428 0.720215 0.719971 11.143 0.719971 24.0002C0.719971 36.8574 11.1428 47.2802 24 47.2802Z" fill="url(#paint0_linear_1993_50889)"/>
<path d="M24 47.2802C36.8572 47.2802 47.28 36.8574 47.28 24.0002C47.28 11.143 36.8572 0.720215 24 0.720215C11.1428 0.720215 0.719971 11.143 0.719971 24.0002C0.719971 36.8574 11.1428 47.2802 24 47.2802Z" stroke="#141414"/>
<path d="M34.1879 33.2763L26.3159 14.2443C25.8719 13.2603 25.2119 12.7803 24.3419 12.7803H23.6459C22.7759 12.7803 22.1159 13.2603 21.6719 14.2443L18.2459 22.5363H15.6539C14.8799 22.5423 14.2499 23.1663 14.2439 23.9463V23.9643C14.2499 24.7383 14.8799 25.3683 15.6539 25.3743H17.0459L13.7759 33.2763C13.7159 33.4503 13.6799 33.6303 13.6799 33.8163C13.6799 34.2603 13.8179 34.6083 14.0639 34.8783C14.3099 35.1483 14.6639 35.2803 15.1079 35.2803C15.4019 35.2743 15.6839 35.1843 15.9179 35.0103C16.1699 34.8363 16.3439 34.5843 16.4819 34.2963L20.0819 25.3683H22.5779C23.3519 25.3623 23.9819 24.7383 23.9879 23.9583V23.9223C23.9819 23.1483 23.3519 22.5183 22.5779 22.5123H21.2459L23.9939 15.6663L31.4819 34.2903C31.6199 34.5783 31.7939 34.8303 32.0459 35.0043C32.2799 35.1783 32.5679 35.2683 32.8559 35.2743C33.2999 35.2743 33.6479 35.1423 33.8999 34.8723C34.1519 34.6023 34.2839 34.2543 34.2839 33.8103C34.2899 33.6303 34.2599 33.4443 34.1879 33.2763Z" fill="white"/>
</g>
<defs>
<linearGradient id="paint0_linear_1993_50889" x1="41.3572" y1="9.3954" x2="6.71656" y2="38.542" gradientUnits="userSpaceOnUse">
<stop stop-color="#B6509E"/>
<stop offset="1" stop-color="#2EBAC6"/>
</linearGradient>
<clipPath id="clip0_1993_50889">
<rect width="48" height="48" fill="white"/>
</clipPath>
</defs>
</svg>
