<svg width="18" height="18" viewBox="0 0 18 18" fill="none" xmlns="http://www.w3.org/2000/svg">
<rect width="18" height="18" rx="9" fill="#1BC28C"/>
<path d="M6.08406 13.2711C5.55173 12.673 5.12173 12.088 4.70635 11.5215C4.3268 11.0063 3.99769 10.4558 3.72358 9.87762C3.55202 9.52679 3.47608 9.17154 3.8477 8.94314C4.91271 8.28864 5.13096 8.91358 5.70983 9.6387C6.05295 10.0684 6.55892 10.7769 6.87594 11.2246C7.17877 11.6521 7.54793 10.8805 7.69531 10.6628C8.21911 9.88901 9.5805 7.99474 10.1431 7.29454C10.6772 6.62983 12.4011 4.76767 12.7225 4.47149C12.996 4.21929 13.5735 3.66613 13.9619 3.97129C14.37 4.29191 14.5694 4.90138 14.2825 5.29766C13.7829 5.98757 12.9982 6.64386 12.4552 7.30078C11.356 8.63053 10.3153 10.0639 9.31641 11.4911C8.97697 11.9761 8.50039 12.7883 8.20451 13.3143C7.65104 14.2983 7.1649 14.4855 6.08406 13.2711Z" fill="white"/>
</svg>
