<svg width="17" height="16" viewBox="0 0 17 16" fill="none" xmlns="http://www.w3.org/2000/svg">
<g id="arrow 1">
<path id="Vector" d="M1.75708 4C1.62447 4 1.49729 4.05268 1.40353 4.14645C1.30976 4.24022 1.25708 4.36739 1.25708 4.5C1.25708 4.63261 1.30976 4.75979 1.40353 4.85355C1.49729 4.94732 1.62447 5 1.75708 5H2.75708C3.31961 4.99596 3.87682 5.109 4.39329 5.33195C4.90977 5.55489 5.37421 5.88286 5.75708 6.295L6.38708 7C6.43427 7.05089 6.49154 7.09139 6.55524 7.11894C6.61894 7.14649 6.68768 7.16047 6.75708 7.16C6.8834 7.15956 7.00487 7.11133 7.09708 7.025C7.14562 6.98019 7.18479 6.92621 7.21235 6.86617C7.2399 6.80613 7.25528 6.74123 7.25761 6.67521C7.25993 6.6092 7.24915 6.54337 7.22589 6.48154C7.20263 6.41972 7.16735 6.36311 7.12208 6.315L6.47208 5.62C5.99774 5.10876 5.42294 4.70099 4.78368 4.42223C4.14442 4.14347 3.45448 3.99972 2.75708 4H1.75708Z" fill="black"/>
<path id="Vector_2" d="M13.4871 2.52501C13.3914 2.4431 13.2684 2.4003 13.1426 2.40516C13.0167 2.41002 12.8973 2.46218 12.8083 2.55123C12.7193 2.64028 12.6671 2.75965 12.6622 2.88549C12.6574 3.01132 12.7002 3.13436 12.7821 3.23001L13.5521 4.00001H13.2571C12.5626 4.00116 11.8757 4.14512 11.2392 4.42294C10.6027 4.70077 10.0301 5.10653 9.55708 5.61501L5.75708 9.70501C5.37421 10.1172 4.90977 10.4451 4.39329 10.6681C3.87682 10.891 3.31961 11.0041 2.75708 11H1.75708C1.62447 11 1.49729 11.0527 1.40353 11.1465C1.30976 11.2402 1.25708 11.3674 1.25708 11.5C1.25708 11.6326 1.30976 11.7598 1.40353 11.8536C1.49729 11.9473 1.62447 12 1.75708 12H2.75708C3.45158 11.9989 4.13843 11.8549 4.77494 11.5771C5.41145 11.2993 5.98402 10.8935 6.45708 10.385L10.2571 6.29501C10.64 5.88287 11.1044 5.55491 11.6209 5.33196C12.1373 5.10902 12.6946 4.99597 13.2571 5.00001H13.5671L12.7971 5.77001C12.704 5.86369 12.6517 5.99042 12.6517 6.12251C12.6517 6.25461 12.704 6.38133 12.7971 6.47501C12.8438 6.52135 12.8992 6.55802 12.9601 6.5829C13.021 6.60778 13.0863 6.62039 13.1521 6.62001C13.2833 6.61946 13.4089 6.56739 13.5021 6.47501L15.1271 4.85501C15.1739 4.80853 15.2111 4.75323 15.2365 4.6923C15.2619 4.63137 15.275 4.56602 15.275 4.50001C15.275 4.43401 15.2619 4.36865 15.2365 4.30773C15.2111 4.2468 15.1739 4.1915 15.1271 4.14501L13.4871 2.52501Z" fill="black"/>
<path id="Vector_3" d="M13.4872 9.52489C13.3915 9.44297 13.2685 9.40017 13.1427 9.40503C13.0168 9.40989 12.8975 9.46206 12.8084 9.55111C12.7194 9.64015 12.6672 9.75952 12.6623 9.88536C12.6575 10.0112 12.7003 10.1342 12.7822 10.2299L13.5522 10.9999H13.2572C12.6947 11.0039 12.1374 10.8909 11.621 10.6679C11.1045 10.445 10.6401 10.117 10.2572 9.70489L9.62219 8.99989C9.52851 8.90676 9.40178 8.85449 9.26969 8.85449C9.13759 8.85449 9.01087 8.90676 8.91719 8.99989C8.86865 9.0447 8.82947 9.09868 8.80192 9.15872C8.77437 9.21876 8.75898 9.28366 8.75666 9.34968C8.75433 9.41569 8.76511 9.48152 8.78838 9.54334C8.81164 9.60517 8.84692 9.66178 8.89219 9.70989L9.54219 10.4049C10.0187 10.9116 10.5945 11.3147 11.2336 11.5891C11.8728 11.8635 12.5616 12.0034 13.2572 11.9999H13.5672L12.7972 12.7699C12.7041 12.8636 12.6518 12.9903 12.6518 13.1224C12.6518 13.2545 12.7041 13.3812 12.7972 13.4749C12.8439 13.5212 12.8993 13.5579 12.9602 13.5828C13.0212 13.6077 13.0864 13.6203 13.1522 13.6199C13.2834 13.6193 13.4091 13.5673 13.5022 13.4749L15.1272 11.8549C15.1741 11.8084 15.2112 11.7531 15.2366 11.6922C15.262 11.6312 15.2751 11.5659 15.2751 11.4999C15.2751 11.4339 15.262 11.3685 15.2366 11.3076C15.2112 11.2467 15.1741 11.1914 15.1272 11.1449L13.4872 9.52489Z" fill="black"/>
</g>
</svg>
