<svg width="25" height="28" viewBox="0 0 25 28" fill="none" xmlns="http://www.w3.org/2000/svg">
<path d="M23.4102 11.796C24.1964 12.9467 24.1964 14.9426 23.4102 16.235C20.8183 20.0723 17.66 23.4934 14.043 26.3814C13.2389 27.0181 12.1427 27.1179 11.2359 26.3814C7.84778 23.4554 4.49355 19.9564 1.86876 16.235C0.88521 14.8378 0.984861 13.2411 1.86876 11.796C4.38094 8.0436 7.84778 4.56266 11.2359 1.64957C12.1427 0.871149 13.1392 0.970947 14.043 1.64957C17.483 4.55268 20.8811 7.97674 23.4102 11.796Z" fill="#FCFCFE" stroke="#141414" stroke-width="0.510365" stroke-miterlimit="10"/>
<path d="M12.6979 10.1004L12.6981 10.1008L15.1416 14.443C15.1922 14.5329 15.2144 14.6361 15.2054 14.7389C15.1964 14.8418 15.1565 14.9395 15.091 15.0191L15.0903 15.02L12.7416 17.9041C12.7166 17.9348 12.685 17.9595 12.6492 17.9763C12.6135 17.9931 12.5744 18.0017 12.5349 18.0013C12.4954 18.001 12.4565 17.9918 12.421 17.9743C12.3855 17.9569 12.3544 17.9317 12.3299 17.9005L12.3298 17.9004L10.058 15.0166C10.058 15.0166 10.058 15.0165 10.058 15.0165C9.99571 14.9372 9.95796 14.8413 9.94942 14.7407C9.94089 14.6401 9.96189 14.5393 10.0098 14.4506C10.0099 14.4505 10.0099 14.4504 10.01 14.4503L12.3783 10.1038L12.3783 10.1038L12.3787 10.1029C12.3943 10.0741 12.4173 10.05 12.4452 10.0332L12.3136 9.81461L12.4452 10.0332C12.4731 10.0164 12.505 10.0074 12.5376 10.0071C12.5701 10.0069 12.6022 10.0154 12.6304 10.0318C12.6586 10.0482 12.6819 10.0718 12.6979 10.1004ZM15.3639 14.3179L12.9205 9.97568L15.2882 15.1811C15.3863 15.0617 15.4461 14.9153 15.4596 14.7612C15.4731 14.6072 15.4398 14.4526 15.3639 14.3179Z" fill="#141414" stroke="#141414" stroke-width="0.510365"/>
</svg>
