<svg width="20" height="20" viewBox="0 0 20 20" fill="none" xmlns="http://www.w3.org/2000/svg">
<g clip-path="url(#clip0_1285_40598)">
<path d="M10 20C15.5228 20 20 15.5228 20 10C20 4.47715 15.5228 0 10 0C4.47715 0 0 4.47715 0 10C0 15.5228 4.47715 20 10 20Z" fill="#03A9F4"/>
<path d="M16.4776 5.98285C15.9904 6.19564 15.475 6.33701 14.9474 6.40258C15.5036 6.07276 15.9193 5.55023 16.1158 4.93416C15.5952 5.24316 15.0256 5.46077 14.4316 5.57758C14.0676 5.18831 13.5949 4.91757 13.0749 4.80059C12.555 4.68361 12.0118 4.72581 11.5162 4.92168C11.0206 5.11755 10.5953 5.45804 10.2958 5.89886C9.99631 6.33968 9.83638 6.86043 9.83683 7.39337C9.83496 7.59679 9.85571 7.79979 9.89868 7.99864C8.84206 7.94674 7.80828 7.67252 6.86486 7.19389C5.92144 6.71527 5.0896 6.043 4.42367 5.221C4.08138 5.80575 3.97534 6.49915 4.12721 7.15947C4.27909 7.8198 4.67742 8.39719 5.24078 8.77363C4.82028 8.7623 4.40869 8.64992 4.04078 8.446V8.47495C4.04196 9.08788 4.25412 9.68172 4.64158 10.1566C5.02905 10.6316 5.5682 10.9586 6.16841 11.0828C5.94127 11.1425 5.7072 11.1717 5.47236 11.1697C5.30326 11.1728 5.13431 11.1578 4.96841 11.125C5.14037 11.6521 5.47143 12.113 5.91605 12.4443C6.36067 12.7756 6.89701 12.961 7.45131 12.975C6.512 13.7091 5.35404 14.1079 4.16183 14.1078C3.94941 14.1097 3.7371 14.0973 3.52631 14.071C4.74193 14.8548 6.15889 15.2689 7.60525 15.2631C12.4934 15.2631 15.1658 11.2144 15.1658 7.70521C15.1658 7.58811 15.1658 7.47495 15.1566 7.36179C15.677 6.98619 16.1247 6.51891 16.4776 5.98285Z" fill="white"/>
</g>
<defs>
<clipPath id="clip0_1285_40598">
<rect width="20" height="20" fill="white"/>
</clipPath>
</defs>
</svg>
