<svg width="18" height="18" viewBox="0 0 18 18" fill="none" xmlns="http://www.w3.org/2000/svg">
<path d="M17.184 9.29102H11.4167C11.1646 9.29102 10.9592 9.49648 10.9592 9.74847C10.9592 9.87684 11.0137 9.99246 11.0988 10.0759L15.1598 14.1369C15.2432 14.2268 15.3637 14.2831 15.4954 14.2831C15.6543 14.2831 15.7939 14.2028 15.8758 14.0808C16.8742 12.9218 17.5163 11.4499 17.6319 9.8303C17.6383 9.80303 17.6415 9.77575 17.6415 9.74842C17.6415 9.49648 17.4376 9.29102 17.184 9.29102Z" fill="white"/>
<path d="M9.67465 1C9.4226 1.00154 9.21878 1.20546 9.21878 1.45746V7.86688C9.21878 8.12052 9.4226 8.32598 9.67465 8.32598H16.0857C16.3378 8.32598 16.5432 8.12052 16.5432 7.86688C16.3168 4.17828 13.3649 1.22637 9.67465 1Z" fill="white"/>
<path d="M13.1979 13.7623L8.46906 9.03355C8.38883 8.95167 8.3407 8.83769 8.3407 8.71411L8.33901 2.03497C8.33901 1.78297 8.13519 1.5791 7.88314 1.5791C4.04199 1.81348 1.00018 5.0045 1.00018 8.90354C1.00018 12.9566 4.28602 16.244 8.33901 16.244C10.1882 16.244 11.8768 15.5602 13.1673 14.4317C13.2669 14.3482 13.3295 14.223 13.3295 14.0834C13.3295 13.9597 13.2797 13.8458 13.1979 13.7623Z" fill="white"/>
</svg>
