<svg width="16" height="16" viewBox="0 0 16 16" fill="none" xmlns="http://www.w3.org/2000/svg">
<path d="M0.533203 7.99987C0.533203 3.87614 3.87614 0.533203 7.99987 0.533203C12.1236 0.533203 15.4665 3.87614 15.4665 7.99987C15.4665 12.1236 12.1236 15.4665 7.99987 15.4665C3.87614 15.4665 0.533203 12.1236 0.533203 7.99987Z" fill="white"/>
<path d="M4.79987 4.79987L11.1999 11.1999M4.79987 11.1999L11.1999 4.79987M7.99987 15.4665C3.87614 15.4665 0.533203 12.1236 0.533203 7.99987C0.533203 3.87614 3.87614 0.533203 7.99987 0.533203C12.1236 0.533203 15.4665 3.87614 15.4665 7.99987C15.4665 12.1236 12.1236 15.4665 7.99987 15.4665Z" stroke="#141414" stroke-opacity="0.3"/>
</svg>
