<svg width="18" height="18" viewBox="0 0 18 18" fill="none" xmlns="http://www.w3.org/2000/svg">
<path d="M7.16666 1H2.16666C1.52335 1 1.00003 1.52332 1.00003 2.16663V5.16663C1.00003 5.81006 1.52335 6.33337 2.16666 6.33337H7.16666C7.81009 6.33337 8.33341 5.81006 8.33341 5.16663V2.16663C8.33341 1.52332 7.81009 1 7.16666 1Z" fill="white"/>
<path d="M7.16669 7.66699H2.16669C1.52338 7.66699 1.00006 8.19031 1.00006 8.83374V15.8337C1.00006 16.4771 1.52338 17.0004 2.16669 17.0004H7.16669C7.81012 17.0004 8.33344 16.4771 8.33344 15.8337V8.83374C8.33344 8.19031 7.81012 7.66699 7.16669 7.66699Z" fill="white"/>
<path d="M15.8336 11.667H10.8336C10.1902 11.667 9.6669 12.1903 9.6669 12.8337V15.8337C9.6669 16.4771 10.1902 17.0004 10.8336 17.0004H15.8336C16.477 17.0004 17.0003 16.4771 17.0003 15.8337V12.8337C17.0003 12.1903 16.477 11.667 15.8336 11.667Z" fill="white"/>
<path d="M15.8336 1H10.8336C10.1902 1 9.6669 1.52332 9.6669 2.16663V9.16663C9.6669 9.81006 10.1902 10.3334 10.8336 10.3334H15.8336C16.477 10.3334 17.0003 9.81006 17.0003 9.16663V2.16663C17.0003 1.52332 16.477 1 15.8336 1Z" fill="white"/>
</svg>
