<svg width="30" height="30" viewBox="0 0 30 30" fill="none" xmlns="http://www.w3.org/2000/svg">
<mask id="path-1-inside-1_560_71957" fill="white">
<path d="M0 15C0 6.71573 6.71573 0 15 0C23.2843 0 30 6.71573 30 15C30 23.2843 23.2843 30 15 30C6.71573 30 0 23.2843 0 15Z"/>
</mask>
<path d="M0 15C0 6.71573 6.71573 0 15 0C23.2843 0 30 6.71573 30 15C30 23.2843 23.2843 30 15 30C6.71573 30 0 23.2843 0 15Z" fill="white"/>

<path d="M-0.2 15C-0.2 6.60527 6.60527 -0.2 15 -0.2C23.3947 -0.2 30.2 6.60527 30.2 15H29.8C29.8 6.82619 23.1738 0.2 15 0.2C6.82619 0.2 0.2 6.82619 0.2 15H-0.2ZM30.2 15C30.2 23.3947 23.3947 30.2 15 30.2C6.60527 30.2 -0.2 23.3947 -0.2 15H0.2C0.2 23.1738 6.82619 29.8 15 29.8C23.1738 29.8 29.8 23.1738 29.8 15H30.2ZM15 30.2C6.60527 30.2 -0.2 23.3947 -0.2 15C-0.2 6.60527 6.60527 -0.2 15 -0.2V0.2C6.82619 0.2 0.2 6.82619 0.2 15C0.2 23.1738 6.82619 29.8 15 29.8V30.2ZM15 -0.2C23.3947 -0.2 30.2 6.60527 30.2 15C30.2 23.3947 23.3947 30.2 15 30.2V29.8C23.1738 29.8 29.8 23.1738 29.8 15C29.8 6.82619 23.1738 0.2 15 0.2V-0.2Z" fill="#141414" fill-opacity="0.2" mask="url(#path-1-inside-1_560_71957)"/>
</svg>
