<svg width="20" height="20" viewBox="0 0 20 20" fill="none" xmlns="http://www.w3.org/2000/svg">
<path d="M0.666504 9.99996C0.666504 4.8453 4.84518 0.666626 9.99984 0.666626C15.1545 0.666626 19.3332 4.8453 19.3332 9.99996C19.3332 15.1546 15.1545 19.3333 9.99984 19.3333C4.84518 19.3333 0.666504 15.1546 0.666504 9.99996Z" fill="white"/>
<path d="M9.99984 5.33329V14.6666M5.33317 9.99996H14.6665M9.99984 19.3333C4.84518 19.3333 0.666504 15.1546 0.666504 9.99996C0.666504 4.8453 4.84518 0.666626 9.99984 0.666626C15.1545 0.666626 19.3332 4.8453 19.3332 9.99996C19.3332 15.1546 15.1545 19.3333 9.99984 19.3333Z" stroke="#141414" stroke-width="1.06667"/>
</svg>
