<svg width="20" height="20" viewBox="0 0 20 20" fill="none" xmlns="http://www.w3.org/2000/svg">
<g clip-path="url(#clip0_568_79897)">
<path d="M11.2811 10.0001C11.2811 13.1366 8.75574 15.6793 5.64055 15.6793C2.52535 15.6793 0 13.1366 0 10.0001C0 6.8635 2.52535 4.3208 5.64055 4.3208C8.7557 4.3208 11.2811 6.8635 11.2811 10.0001Z" fill="#141414"/>
<path d="M17.4687 10.0001C17.4687 12.9526 16.206 15.3461 14.6484 15.3461C13.0908 15.3461 11.8281 12.9526 11.8281 10.0001C11.8281 7.04753 13.0908 4.65405 14.6484 4.65405C16.206 4.65405 17.4687 7.04753 17.4687 10.0001Z" fill="#141414"/>
<path d="M20.0004 10C20.0004 12.6454 19.5563 14.7898 19.0085 14.7898C18.4606 14.7898 18.0166 12.6454 18.0166 10C18.0166 7.35466 18.4606 5.21021 19.0085 5.21021C19.5563 5.21021 20.0004 7.35466 20.0004 10Z" fill="#141414"/>
</g>
<defs>
<clipPath id="clip0_568_79897">
<rect width="20" height="20" fill="white"/>
</clipPath>
</defs>
</svg>
