<svg width="17" height="16" viewBox="0 0 17 16" fill="none" xmlns="http://www.w3.org/2000/svg">
<g clip-path="url(#clip0_1040_8971)">
<path d="M1.75714 4C1.62453 4 1.49736 4.05268 1.40359 4.14645C1.30982 4.24022 1.25714 4.36739 1.25714 4.5C1.25714 4.63261 1.30982 4.75979 1.40359 4.85355C1.49736 4.94732 1.62453 5 1.75714 5H2.75714C3.31967 4.99596 3.87688 5.109 4.39335 5.33195C4.90983 5.55489 5.37427 5.88286 5.75714 6.295L6.38714 7C6.43433 7.05089 6.4916 7.09139 6.5553 7.11894C6.619 7.14649 6.68774 7.16047 6.75714 7.16C6.88346 7.15956 7.00493 7.11133 7.09714 7.025C7.14568 6.98019 7.18486 6.92621 7.21241 6.86617C7.23996 6.80613 7.25535 6.74123 7.25767 6.67521C7.25999 6.6092 7.24921 6.54337 7.22595 6.48154C7.20269 6.41972 7.16741 6.36311 7.12214 6.315L6.47214 5.62C5.9978 5.10876 5.423 4.70099 4.78374 4.42223C4.14448 4.14347 3.45454 3.99972 2.75714 4H1.75714Z" fill="black"/>
<path d="M13.4871 2.52501C13.3915 2.4431 13.2685 2.4003 13.1426 2.40516C13.0168 2.41002 12.8974 2.46218 12.8084 2.55123C12.7193 2.64028 12.6671 2.75965 12.6623 2.88549C12.6574 3.01132 12.7002 3.13436 12.7821 3.23001L13.5521 4.00001H13.2571C12.5626 4.00116 11.8758 4.14512 11.2393 4.42294C10.6028 4.70077 10.0302 5.10653 9.55714 5.61501L5.75714 9.70501C5.37427 10.1172 4.90983 10.4451 4.39335 10.6681C3.87688 10.891 3.31967 11.0041 2.75714 11H1.75714C1.62453 11 1.49736 11.0527 1.40359 11.1465C1.30982 11.2402 1.25714 11.3674 1.25714 11.5C1.25714 11.6326 1.30982 11.7598 1.40359 11.8536C1.49736 11.9473 1.62453 12 1.75714 12H2.75714C3.45164 11.9989 4.13849 11.8549 4.775 11.5771C5.41151 11.2993 5.98408 10.8935 6.45714 10.385L10.2571 6.29501C10.64 5.88287 11.1045 5.55491 11.6209 5.33196C12.1374 5.10902 12.6946 4.99597 13.2571 5.00001H13.5671L12.7971 5.77001C12.704 5.86369 12.6517 5.99042 12.6517 6.12251C12.6517 6.25461 12.704 6.38133 12.7971 6.47501C12.8439 6.52135 12.8993 6.55802 12.9602 6.5829C13.0211 6.60778 13.0863 6.62039 13.1521 6.62001C13.2833 6.61946 13.409 6.56739 13.5021 6.47501L15.1271 4.85501C15.174 4.80853 15.2112 4.75323 15.2366 4.6923C15.262 4.63137 15.275 4.56602 15.275 4.50001C15.275 4.43401 15.262 4.36865 15.2366 4.30773C15.2112 4.2468 15.174 4.1915 15.1271 4.14501L13.4871 2.52501Z" fill="black"/>
<path d="M13.4871 9.52489C13.3915 9.44297 13.2684 9.40017 13.1426 9.40503C13.0168 9.40989 12.8974 9.46206 12.8083 9.55111C12.7193 9.64015 12.6671 9.75952 12.6623 9.88536C12.6574 10.0112 12.7002 10.1342 12.7821 10.2299L13.5521 10.9999H13.2571C12.6946 11.0039 12.1374 10.8909 11.6209 10.6679C11.1044 10.445 10.64 10.117 10.2571 9.70489L9.62213 8.99989C9.52844 8.90676 9.40172 8.85449 9.26963 8.85449C9.13753 8.85449 9.01081 8.90676 8.91713 8.99989C8.86859 9.0447 8.82941 9.09868 8.80186 9.15872C8.7743 9.21876 8.75892 9.28366 8.7566 9.34968C8.75427 9.41569 8.76505 9.48152 8.78831 9.54334C8.81158 9.60517 8.84686 9.66178 8.89213 9.70989L9.54213 10.4049C10.0186 10.9116 10.5944 11.3147 11.2336 11.5891C11.8727 11.8635 12.5616 12.0034 13.2571 11.9999H13.5671L12.7971 12.7699C12.704 12.8636 12.6517 12.9903 12.6517 13.1224C12.6517 13.2545 12.704 13.3812 12.7971 13.4749C12.8438 13.5212 12.8993 13.5579 12.9602 13.5828C13.0211 13.6077 13.0863 13.6203 13.1521 13.6199C13.2833 13.6193 13.409 13.5673 13.5021 13.4749L15.1271 11.8549C15.174 11.8084 15.2112 11.7531 15.2366 11.6922C15.262 11.6312 15.275 11.5659 15.275 11.4999C15.275 11.4339 15.262 11.3685 15.2366 11.3076C15.2112 11.2467 15.174 11.1914 15.1271 11.1449L13.4871 9.52489Z" fill="black"/>
</g>
<defs>
<clipPath id="clip0_1040_8971">
<rect width="16" height="16" fill="white" transform="translate(0.5)"/>
</clipPath>
</defs>
</svg>
