<svg width="43" height="33" viewBox="0 0 43 33" fill="none" xmlns="http://www.w3.org/2000/svg">
<rect x="0.123715" y="0.322716" width="35.3509" height="19.4011" rx="9.70057" transform="matrix(0.92218 0.386762 -0.427321 0.9041 9.52277 0.371284)" fill="#FFFE7F"/>
<path d="M11.0317 15.1126C10.5139 14.8954 10.086 14.5868 9.74807 14.1867C9.41725 13.7896 9.22848 13.3438 9.18175 12.8492L10.1469 12.6415C10.1518 13.0269 10.2604 13.3724 10.4729 13.6782C10.6925 13.987 11.0151 14.2306 11.4407 14.4091C11.8166 14.5668 12.1439 14.6207 12.4225 14.5709C12.7043 14.5141 12.8995 14.3709 13.0079 14.1414C13.077 13.9954 13.0898 13.8424 13.0463 13.6825C13.0133 13.5187 12.8751 13.3524 12.6319 13.1837L11.4783 12.3874C11.0097 12.0659 10.7195 11.7358 10.6075 11.3972C10.5027 11.0616 10.5357 10.7129 10.7066 10.3513C10.8414 10.0662 11.0462 9.83957 11.3212 9.67154C11.6032 9.50649 11.9296 9.41838 12.3003 9.40722C12.6815 9.39207 13.0813 9.47227 13.4999 9.6478C14.0248 9.86795 14.4205 10.1547 14.6869 10.5082C14.9534 10.8616 15.0882 11.2598 15.0913 11.7027L14.1614 11.8627C14.1855 11.5062 14.0956 11.2018 13.8918 10.9497C13.6912 10.6905 13.4455 10.5 13.1547 10.378C12.8993 10.2709 12.663 10.2135 12.4457 10.2057C12.2355 10.2008 12.0511 10.2402 11.8927 10.3237C11.7446 10.4033 11.6343 10.5195 11.562 10.6725C11.4897 10.8256 11.4755 10.9904 11.5195 11.1672C11.5667 11.337 11.7226 11.5107 11.9872 11.6883L13.189 12.5174C13.6396 12.823 13.9116 13.1288 14.005 13.4346C14.0984 13.7405 14.0695 14.0533 13.9183 14.3732C13.7638 14.7001 13.5388 14.9515 13.2431 15.1275C12.9507 15.2966 12.6137 15.3802 12.232 15.3785C11.8503 15.3767 11.4502 15.2881 11.0317 15.1126Z" fill="#141414"/>
<path d="M19.4941 12.1618C19.9978 12.373 20.3902 12.6668 20.6713 13.043C20.9596 13.4222 21.1167 13.8631 21.1427 14.3657C21.1719 14.8613 21.0534 15.3907 20.7872 15.9541C20.5209 16.5174 20.1809 16.9581 19.767 17.2762C19.3565 17.5873 18.9052 17.7689 18.4131 17.8208C17.9282 17.8758 17.4339 17.7976 16.9302 17.5864C16.4336 17.3781 16.0412 17.0844 15.753 16.7052C15.4647 16.326 15.306 15.8885 15.2767 15.3929C15.2508 14.8904 15.3709 14.3575 15.6372 13.7941C15.9034 13.2308 16.2418 12.7936 16.6524 12.4824C17.0662 12.1643 17.5192 11.9793 18.0112 11.9274C18.5033 11.8754 18.9976 11.9535 19.4941 12.1618ZM19.1539 12.8816C18.7921 12.7299 18.4458 12.6804 18.1148 12.7333C17.7838 12.7861 17.4767 12.9323 17.1935 13.1719C16.9207 13.4075 16.6856 13.7339 16.4884 14.1511C16.2945 14.5615 16.1942 14.9444 16.1876 15.3C16.1882 15.6585 16.2783 15.9714 16.4581 16.2384C16.6379 16.5055 16.9086 16.7149 17.2704 16.8666C17.6322 17.0183 17.9786 17.0678 18.3095 17.0149C18.6405 16.9621 18.9441 16.8144 19.2202 16.5718C19.5034 16.3323 19.742 16.0074 19.9359 15.597C20.1332 15.1798 20.2299 14.7953 20.226 14.4437C20.2326 14.0882 20.146 13.7768 19.9662 13.5098C19.7865 13.2427 19.5157 13.0333 19.1539 12.8816Z" fill="#141414"/>
<path d="M25.8743 14.8376C26.3779 15.0489 26.7703 15.3426 27.0515 15.7189C27.3398 16.0981 27.4969 16.539 27.5228 17.0415C27.5521 17.5371 27.4336 18.0666 27.1673 18.6299C26.9011 19.1932 26.561 19.6339 26.1472 19.952C25.7366 20.2632 25.2853 20.4447 24.7933 20.4967C24.3083 20.5516 23.814 20.4735 23.3104 20.2622C22.8138 20.054 22.4214 19.7602 22.1331 19.381C21.8449 19.0018 21.6861 18.5644 21.6569 18.0688C21.6309 17.5662 21.7511 17.0333 22.0173 16.47C22.2836 15.9067 22.622 15.4694 23.0325 15.1583C23.4464 14.8402 23.8993 14.6552 24.3914 14.6032C24.8834 14.5512 25.3777 14.6294 25.8743 14.8376ZM25.5341 15.5574C25.1723 15.4057 24.8259 15.3563 24.4949 15.4091C24.164 15.462 23.8569 15.6082 23.5737 15.8477C23.3008 16.0833 23.0658 16.4097 22.8686 16.827C22.6746 17.2373 22.5744 17.6203 22.5678 17.9758C22.5683 18.3344 22.6585 18.6472 22.8383 18.9143C23.018 19.1813 23.2888 19.3907 23.6506 19.5424C24.0124 19.6942 24.3587 19.7436 24.6897 19.6908C25.0207 19.6379 25.3242 19.4902 25.6004 19.2477C25.8836 19.0081 26.1222 18.6832 26.3161 18.2729C26.5133 17.8556 26.61 17.4712 26.6062 17.1196C26.6128 16.764 26.5262 16.4527 26.3464 16.1856C26.1666 15.9186 25.8959 15.7092 25.5341 15.5574Z" fill="#141414"/>
<path d="M27.5372 21.91L30.0026 16.694L30.7474 17.0064L30.2696 18.206L30.1856 18.0333C30.4305 17.8027 30.6882 17.6441 30.9587 17.5575C31.2324 17.464 31.5114 17.431 31.7959 17.4587C32.0874 17.4893 32.368 17.5611 32.6375 17.6741C33.0206 17.8348 33.3336 18.0536 33.5767 18.3305C33.8231 18.6005 33.9695 18.9203 34.0159 19.2897C34.0694 19.6621 33.9893 20.0744 33.7756 20.5264L32.1978 23.8646L31.3466 23.5076L32.7863 20.4615C33.0591 19.8843 33.1204 19.4308 32.9703 19.1012C32.8305 18.7675 32.5761 18.5234 32.2072 18.3687C31.9519 18.2616 31.6686 18.2136 31.3573 18.2247C31.0461 18.2358 30.7428 18.3378 30.4477 18.5307C30.1596 18.7265 29.9104 19.047 29.7 19.4921L28.3885 22.267L27.5372 21.91Z" fill="#141414"/>
<rect x="0.123715" y="0.322716" width="35.3509" height="19.4011" rx="9.70057" transform="matrix(0.92218 0.386762 -0.427321 0.9041 9.52277 0.371284)" stroke="#141414" stroke-width="0.5"/>
</svg>
