<svg width="42" height="43" viewBox="0 0 42 43" fill="none" xmlns="http://www.w3.org/2000/svg">
<path fill-rule="evenodd" clip-rule="evenodd" d="M20.9453 10.5067L24.6286 16.0099L28.3118 21.5145L20.9453 25.2258L13.5787 21.5005L17.262 15.9959L20.9453 10.5067ZM20.9453 26.7085L13.9873 22.9959L20.9453 32.4943L27.9033 22.9959L20.9453 26.7085Z" fill="#343434"/>
<path fill-rule="evenodd" clip-rule="evenodd" d="M20.9453 10.5067L24.6286 15.9959L28.3119 21.5005L20.9453 18.7196V10.5067Z" fill="#343434"/>
<path fill-rule="evenodd" clip-rule="evenodd" d="M20.9453 26.7085L27.9173 22.9959L20.9453 32.5083V26.7085Z" fill="#313131"/>
<path fill-rule="evenodd" clip-rule="evenodd" d="M20.9453 18.7189L28.3119 21.4998L20.9453 25.2111V18.7189Z" fill="#151515"/>
<path fill-rule="evenodd" clip-rule="evenodd" d="M20.9453 10.5067L17.262 15.9959L13.5787 21.5005L20.9453 18.7196V10.5067Z" fill="#8C8C8C"/>
<path fill-rule="evenodd" clip-rule="evenodd" d="M20.9452 26.7085L13.9872 22.9959L20.9452 32.5083V26.7085Z" fill="#8A8A8A"/>
<path fill-rule="evenodd" clip-rule="evenodd" d="M20.9453 18.7189L13.5787 21.4998L20.9453 25.2111V18.7189Z" fill="#353535"/>
<rect x="0.5" y="1" width="41" height="41" rx="11.5" stroke="#141414"/>
</svg>
